<svg width="512" height="512" viewBox="0 0 512 512" fill="none" xmlns="http://www.w3.org/2000/svg">
  <rect width="512" height="512" rx="112" fill="#0A0A0A"/>
  <!-- safe zone ~ center 80% -->
  <g>
    <!-- corner brackets -->
    <path d="M150 150 h44 M150 150 v44" stroke="#22C55E" stroke-width="16" stroke-linecap="round"/>
    <path d="M362 150 h-44 M362 150 v44" stroke="#22C55E" stroke-width="16" stroke-linecap="round"/>
    <path d="M150 362 h44 M150 362 v-44" stroke="#22C55E" stroke-width="16" stroke-linecap="round"/>
    <path d="M362 362 h-44 M362 362 v-44" stroke="#22C55E" stroke-width="16" stroke-linecap="round"/>
    <!-- barcode bars -->
    <g fill="#FFFFFF">
      <rect x="186" y="206" width="12" height="100" rx="3"/>
      <rect x="206" y="206" width="20" height="100" rx="3"/>
      <rect x="234" y="206" width="10" height="100" rx="3"/>
      <rect x="252" y="206" width="24" height="100" rx="3"/>
      <rect x="284" y="206" width="12" height="100" rx="3"/>
      <rect x="304" y="206" width="22" height="100" rx="3"/>
    </g>
    <!-- scan line -->
    <rect x="166" y="250" width="180" height="12" rx="6" fill="#22C55E"/>
  </g>
</svg>
